<?xml version="1.0" encoding="UTF-8"?> <svg xmlns="http://www.w3.org/2000/svg" width="24" height="24" viewBox="0 0 24 24" fill="none"><path d="M12.4794 6.18922C12.3282 6.10182 12.1392 6.1857 12.1392 6.36033V9.73953C12.1392 10.3444 12.4656 10.9012 12.9936 11.2084C13.6988 11.6176 14.9561 12.3397 15.6155 12.7181C15.8075 12.8282 16.0464 12.6895 16.0464 12.4681V8.41769C16.0464 8.31487 15.9915 8.21983 15.9025 8.16837L12.4794 6.18922Z" fill="#FD1919"></path><path d="M20.0579 4.60506C20.2503 4.71571 20.2505 4.99317 20.0583 5.10412L16.9104 6.92152C16.8212 6.97297 16.7115 6.97297 16.6224 6.92152L13.4751 5.10454C13.2827 4.99349 13.2831 4.71574 13.4758 4.60527L15.9216 3.20306C16.44 2.89586 17.0928 2.89586 17.6208 3.20306L20.0579 4.60506Z" fill="#FD1919"></path><path d="M21.3935 9.73992V6.36072C21.3935 6.18595 21.2044 6.10186 21.053 6.18905L17.6306 8.15924C17.5413 8.21064 17.4863 8.30582 17.4863 8.40884V12.469C17.4863 12.6902 17.725 12.8289 17.917 12.7191C18.5779 12.3407 19.8404 11.6174 20.5487 11.2087C21.0671 10.9015 21.3935 10.3447 21.3935 9.73992Z" fill="#FD1919"></path><path d="M11.1683 12.8805C11.3607 12.9911 11.3609 13.2686 11.1687 13.3795L8.02068 15.1969C7.93158 15.2484 7.82179 15.2484 7.73269 15.1969L4.58541 13.3799C4.39307 13.2689 4.39349 12.9911 4.58616 12.8807L7.03188 11.4784C7.55028 11.1712 8.20308 11.1712 8.73108 11.4784L11.1683 12.8805Z" fill="#FD1919"></path><path d="M3.24951 14.6377C3.24951 14.4631 3.43853 14.3792 3.58971 14.4665L7.01286 16.4457C7.10189 16.4972 7.15671 16.5922 7.15671 16.6951V20.7454C7.15671 20.9668 6.91787 21.1055 6.72592 20.9954C6.06647 20.6171 4.80917 19.895 4.10391 19.4857C3.57591 19.1785 3.24951 18.6217 3.24951 18.0169V14.6377Z" fill="#FD1919"></path><path d="M12.5039 18.0173V14.6381C12.5039 14.4633 12.3148 14.3792 12.1633 14.4664L8.74099 16.4366C8.65171 16.488 8.59668 16.5831 8.59668 16.6862V20.7464C8.59668 20.9676 8.83535 21.1063 9.02732 20.9965C9.68833 20.618 10.9508 19.8948 11.6591 19.4861C12.1775 19.1789 12.5039 18.6221 12.5039 18.0173Z" fill="#FD1919"></path><path d="M19.9821 15.6282C19.9821 15.2308 20.3047 14.9082 20.7021 14.9082C21.0996 14.9082 21.4221 15.2308 21.4221 15.6282C21.4221 18.7885 18.8503 21.3594 15.689 21.3594C15.4538 21.3594 15.233 21.2442 15.0976 21.0503C14.9632 20.8573 14.9325 20.6096 15.0141 20.3888L15.6093 18.7856C15.7485 18.4122 16.1623 18.2231 16.5348 18.3613C16.5685 18.3738 16.6313 18.4053 16.6313 18.4053C16.686 18.4351 16.7354 18.4713 16.7792 18.5126L17.8792 19.318C19.1373 18.5689 19.9821 17.1955 19.9821 15.6282Z" fill="#FD1919"></path><path d="M4.69586 8.37183C4.69586 8.76927 4.3733 9.09183 3.97586 9.09183C3.57842 9.09183 3.25586 8.76927 3.25586 8.37183C3.25586 5.21151 5.8277 2.64062 8.98898 2.64062C9.22418 2.64062 9.44498 2.75583 9.58034 2.94975C9.7147 3.14271 9.74542 3.39038 9.66382 3.61118L9.06866 5.21439C8.92946 5.58783 8.5157 5.77695 8.14322 5.63871C8.10947 5.62622 8.04657 5.59471 8.04657 5.59471C7.99203 5.56488 7.94257 5.52866 7.89879 5.48737L6.79874 4.68201C5.54058 5.43111 4.69586 6.80451 4.69586 8.37183Z" fill="#FD1919"></path></svg> 