<?xml version="1.0" encoding="UTF-8"?> <svg xmlns="http://www.w3.org/2000/svg" width="24" height="24" viewBox="0 0 24 24" fill="none"><path fill-rule="evenodd" clip-rule="evenodd" d="M20.9745 14.6699C20.577 14.6699 20.2545 14.9925 20.2545 15.3899V16.9067C20.2545 18.5694 18.9009 19.9211 17.2372 19.9211H15.9988C15.6014 19.9211 15.2788 20.2437 15.2788 20.6411C15.2788 21.0386 15.6014 21.3611 15.9988 21.3611H17.2372C19.6948 21.3611 21.6945 19.3634 21.6945 16.9067V15.3899C21.6945 14.9925 21.3719 14.6699 20.9745 14.6699Z" fill="#FD1919"></path><path fill-rule="evenodd" clip-rule="evenodd" d="M8.64007 19.9211H7.43239C5.76967 19.9211 4.41607 18.5685 4.41607 16.9067V15.3899C4.41607 14.9925 4.09351 14.6699 3.69607 14.6699C3.29863 14.6699 2.97607 14.9925 2.97607 15.3899V16.9067C2.97607 19.3624 4.97575 21.3611 7.43239 21.3611H8.64007C9.03751 21.3611 9.36007 21.0386 9.36007 20.6411C9.36007 20.2437 9.03751 19.9211 8.64007 19.9211Z" fill="#FD1919"></path><path fill-rule="evenodd" clip-rule="evenodd" d="M3.69607 9.33183C4.09351 9.33183 4.41607 9.00927 4.41607 8.61183V7.09502C4.41607 5.4323 5.76967 4.08062 7.43239 4.08062H8.67079C9.06823 4.08062 9.39079 3.75806 9.39079 3.36062C9.39079 2.96318 9.06823 2.64062 8.67079 2.64062H7.43239C4.97575 2.64062 2.97607 4.63934 2.97607 7.09502V8.61183C2.97607 9.00927 3.29863 9.33183 3.69607 9.33183Z" fill="#FD1919"></path><path fill-rule="evenodd" clip-rule="evenodd" d="M17.2378 2.64062H16.031C15.6336 2.64062 15.311 2.96318 15.311 3.36062C15.311 3.75806 15.6336 4.08062 16.031 4.08062H17.2378C18.9014 4.08062 20.255 5.4323 20.255 7.09502V8.61183C20.255 9.00927 20.5776 9.33183 20.975 9.33183C21.3725 9.33183 21.695 9.00927 21.695 8.61183V7.09502C21.695 4.63934 19.6954 2.64062 17.2378 2.64062Z" fill="#FD1919"></path><path fill-rule="evenodd" clip-rule="evenodd" d="M7.71111 10.2172C7.71733 10.0914 7.85412 10.0328 7.96314 10.0958L11.5203 12.1525C11.5797 12.1868 11.6162 12.2501 11.6162 12.3187V16.6284C11.6162 16.7642 11.4791 16.8566 11.3553 16.8008C10.3888 16.3647 9.46333 15.6878 8.55378 15.1647C8.03538 14.8575 7.70898 14.2911 7.70898 13.6863V10.3071C7.70898 10.2771 7.70964 10.247 7.71111 10.2172Z" fill="#FD1919"></path><path fill-rule="evenodd" clip-rule="evenodd" d="M15.772 8.63343C15.9001 8.70721 15.9003 8.89218 15.7722 8.96614L12.5277 10.8393C12.409 10.9078 12.2628 10.9079 12.144 10.8395L8.89111 8.96631C8.76272 8.89238 8.7629 8.70705 8.89142 8.63336L11.4816 7.14837C12.0096 6.84117 12.6624 6.84117 13.1904 7.14837L15.772 8.63343Z" fill="#FD1919"></path><path fill-rule="evenodd" clip-rule="evenodd" d="M16.9634 10.3056V13.6848C16.9634 14.2896 16.637 14.856 16.109 15.1632C15.203 15.686 14.2804 16.364 13.317 16.7992C13.1931 16.8552 13.0562 16.7626 13.0562 16.6268V12.3079C13.0562 12.2391 13.0928 12.1757 13.1523 12.1414L16.7093 10.0937C16.8184 10.031 16.955 10.0896 16.9612 10.2153C16.9627 10.2452 16.9634 10.2754 16.9634 10.3056Z" fill="#FD1919"></path></svg> 