<?xml version="1.0" encoding="UTF-8"?> <svg xmlns="http://www.w3.org/2000/svg" width="181" height="181" viewBox="0 0 181 181" fill="none"><path d="M168.708 15.9903C171.607 14.8237 175.231 14.5833 177.825 16.5842C180.233 18.4154 180.996 21.6041 181 24.4888V25.2665C180.707 28.2608 179.936 31.1738 179.342 34.115C170.628 74.9284 161.924 115.742 153.207 156.555C152.496 159.652 151.322 163 148.547 164.834C146.055 166.475 142.817 165.99 140.218 164.87C138.274 164.159 136.704 162.781 135.039 161.603C122.189 152.182 109.335 142.768 96.4744 133.361C89.6904 139.852 82.9029 146.339 76.1119 152.822C74.8463 154.056 73.5206 155.318 71.8344 155.944C70.6254 156.438 69.3138 156.534 68.0305 156.622C69.0063 142.588 70.0314 128.557 71.0107 114.522C96.3259 91.7522 121.677 69.0176 147.009 46.2689C147.883 45.424 149.032 44.6887 149.367 43.4514C149.523 42.5535 148.544 42.0727 147.798 42.0444C145.691 41.8888 143.8 43.0095 142.106 44.116C110.626 63.8386 79.1097 83.5047 47.6398 103.245C33.8845 98.9887 20.1362 94.7041 6.38803 90.4265C3.8109 89.564 0.834297 88.2383 0 85.3995V84.2683C1.03934 80.567 4.94215 78.8489 8.18035 77.4596C61.6849 56.9557 115.2 36.4801 168.708 15.9903Z" fill="#FD1919"></path></svg> 