<?xml version="1.0" encoding="UTF-8"?> <svg xmlns="http://www.w3.org/2000/svg" width="181" height="181" viewBox="0 0 181 181" fill="none"><path d="M78.8976 38.9709C85.3351 38.8507 91.8257 38.7411 98.1996 39.7946C100.504 40.2117 103.138 40.841 104.485 42.955C105.949 45.5887 106.284 48.6643 106.196 51.6303C106.065 58.4602 105.772 65.2901 105.698 72.1236C105.655 76.387 105.288 80.7494 106.387 84.9209C106.974 86.8935 108.406 89.0888 110.682 89.163C112.273 89.2125 113.418 87.8975 114.536 86.95C116.508 85.2673 118.262 83.3442 119.771 81.2372C126.841 71.4307 132.745 60.7793 137.221 49.5445C138.005 47.6709 138.681 45.5215 140.494 44.3797C142.177 43.4429 144.171 43.807 146.005 43.7716C154.49 43.6868 162.974 43.6833 171.459 43.5701C174.202 43.358 177.21 43.3191 179.593 44.8958C180.572 45.5251 180.894 46.72 181 47.8088V48.1658C180.657 51.6515 179.052 54.8402 177.408 57.8769C170.829 69.656 161.755 79.7524 154.069 90.7821C152.881 92.6381 151.563 94.5895 151.485 96.8697C151.393 99.2418 152.68 101.409 154.278 103.063C158.485 107.581 163.151 111.643 167.492 116.03C171.533 120.279 175.538 124.631 178.6 129.658C180.162 131.801 181.018 134.505 180.763 137.156C180.696 138.673 179.427 139.677 178.25 140.416C176.631 141.434 174.654 141.441 172.813 141.582C164.105 141.816 155.391 141.763 146.691 142.088C142.099 141.657 137.747 139.511 134.308 136.481C130.642 133.307 127.58 129.527 124.349 125.925C122.67 124.087 121.069 122.146 119.096 120.601C117.505 119.254 115.663 117.858 113.475 117.883C111.34 117.996 109.873 119.862 108.703 121.45C106.345 125.271 105.881 129.934 105.846 134.332C105.807 136.106 105.556 138.001 104.46 139.454C102.986 141.024 100.741 141.593 98.645 141.596C94.1589 141.586 89.6728 141.593 85.1867 141.614C77.7734 141.342 70.4839 139.171 63.8873 135.824C54.5015 130.595 45.4162 124.271 38.9539 115.542C30.5897 105.145 23.0351 94.0875 16.6188 82.3826C12.9917 76.1077 9.79592 69.603 6.52236 63.1408C4.68408 59.1778 2.92711 55.1796 1.10297 51.2131C0.590371 50.1243 0.183828 48.9825 0 47.7946V46.7094C0.629258 44.3797 3.27002 43.6444 5.40525 43.6232C13.8578 43.4959 22.3139 43.503 30.7665 43.404C33.6335 43.4252 36.7373 44.864 37.9817 47.5755C38.6145 48.8517 39.1271 50.1879 39.6892 51.496C42.9875 59.1708 47.0423 66.4815 50.8568 73.9018C53.7662 79.0171 56.7569 84.3623 61.5259 87.9894C63.198 89.361 65.6867 90.0079 67.6346 88.8449C69.9996 85.8753 70.4203 81.9549 70.7844 78.3066C71.693 71.9044 71.5657 65.3927 70.9082 58.9728C70.4592 56.0174 70.042 52.9277 68.4866 50.3187C66.5175 47.533 63.0212 46.7412 59.8997 46.02C60.3734 44.1711 61.9501 42.9409 63.4136 41.8626C65.4075 40.4274 67.8962 40.035 70.2718 39.7062C73.1212 39.2148 76.0165 39.1583 78.8976 38.9709Z" fill="#FD1919"></path></svg> 